<svg id="Layer_1" data-name="Layer 1" xmlns="http://www.w3.org/2000/svg" viewBox="0 0 314.06 183.45"><defs><style>.cls-1{fill:#d7ebd3;}.cls-2{fill:#231f20;}</style></defs><title>Artboard 2</title><rect class="cls-1" y="13.2" width="314.06" height="157.06"/><path class="cls-2" d="M185.62,141.48a11.52,11.52,0,0,0,5.67,2.33v3.29q-9.49-.6-12.71-.61-4.22,0-17.38.61v-3.29a6.43,6.43,0,0,0,3.52-.84,2.49,2.49,0,0,0,1.3-2.14,4.19,4.19,0,0,0-.92-2.38l-18-26.34a18.6,18.6,0,0,0-5.21-5.36,14.15,14.15,0,0,0-6.58-1.53v27.34a18,18,0,0,0,1,6.81,6.29,6.29,0,0,0,3.22,3.45,15.07,15.07,0,0,0,6.09,1v3.29q-13.17-.6-17.39-.61-4.59,0-19,.61v-3.29a20,20,0,0,0,7-1,6.73,6.73,0,0,0,3.75-3.45,15.91,15.91,0,0,0,1.19-6.81V43q0-7.28-2.64-10.53t-9.3-3.25V25.9q5,.45,9.72.45,10.11,0,16.31-2.22V102A25.44,25.44,0,0,0,143,99.9a20.34,20.34,0,0,0,5.81-4.4l11.64-12q5-5.22,5-8.66c0-1.83-1-3.19-3.14-4.06a22.57,22.57,0,0,0-8.42-1.3V66.32q10.88.62,17.69.62,7.35,0,13.63-.62v3.14q-7.66.69-14.09,7.35L152,96.88l28.33,38.74A30.64,30.64,0,0,0,185.62,141.48Z"/><path class="cls-2" d="M217.13,130.6a9.78,9.78,0,0,1,3.68,3.68,10,10,0,0,1,1.34,5,9.74,9.74,0,0,1-1.34,5,10.14,10.14,0,0,1-3.68,3.68,9.8,9.8,0,0,1-10,0,10.12,10.12,0,0,1-3.67-3.68,9.64,9.64,0,0,1-1.34-5,9.85,9.85,0,0,1,1.34-5,9.75,9.75,0,0,1,3.67-3.68,10.05,10.05,0,0,1,10,0Z"/><path class="cls-2" d="M45.8,3.67V179.79H61.4v3.66h-33V0h33V3.67Z"/><path class="cls-2" d="M269.14,3.67V179.79h-15.6v3.66h33V0h-33V3.67Z"/></svg>