<?xml version="1.0" encoding="utf-8"?>
<!-- Generator: Adobe Illustrator 22.0.1, SVG Export Plug-In . SVG Version: 6.00 Build 0)  -->
<svg version="1.1" id="Layer_1" xmlns="http://www.w3.org/2000/svg" xmlns:xlink="http://www.w3.org/1999/xlink" x="0px" y="0px"
	 viewBox="0 0 792 612" style="enable-background:new 0 0 792 612;" xml:space="preserve">
<style type="text/css">
	.st0{clip-path:url(#SVGID_2_);}
	.st1{fill:none;stroke:#E6E7E8;stroke-miterlimit:10;}
</style>
<g>
	<defs>
		<rect id="SVGID_1_" width="792" height="612"/>
	</defs>
	<clipPath id="SVGID_2_">
		<use xlink:href="#SVGID_1_"  style="overflow:visible;"/>
	</clipPath>
	<g class="st0">
		<path class="st1" d="M185.3,164.7c-0.1,0.9-0.1,1.8,0.1,2.6c0.3,1.3,1.1,2.3,2.1,3.2c3,2.6,7.2,3.2,11.2,3
			c1.2-0.1,2.5-0.2,3.6-0.8c1.7-1,2.6-2.9,3.4-4.8c1.4-3.1,2.7-6.3,4.1-9.4c0.4-1,0.9-2.1,1-3.2c0.1-2.1-1.3-4.1-3.1-5.3
			c-1.8-1.2-3.9-1.7-6-2.2c-2.5-0.6-5.2-1.3-7.8-0.9C186.1,147.8,185.8,158.6,185.3,164.7z"/>
		<path class="st1" d="M205.8,128.5c-7.5-0.6-15.7-2.2-22.3,1.7c-7.5,4.5-13.7,11.6-16.3,20.2c-3.4,11.4-0.3,24.5-2.3,35.5
			c-0.2,1.2-0.5,2.5-0.8,3.7c-0.3,1.2-0.7,2.5-0.8,3.7c-0.1,1-0.2,2,0,3c0.5,2.6,2.6,4.8,4.8,6.2c4.4,2.8,9.8,3.6,14.9,3
			c5-0.6,9.8-2.6,14.2-5c2.7-1.4,5.3-3,7.6-5.1c2.5-2.2,4.5-4.9,6.3-7.7c0.9-1.5,1.8-3,2.6-4.5c2-3.5,3.9-7,6.3-10.1
			c2.8-3.7,6-6.9,9.2-10.2c2.3-2.5,4.7-5.1,6.1-8.1c0.3-0.7,0.6-1.5,0.8-2.2c1.2-4,0.6-8.7-2.2-11.9c-1-1.2-2.3-2.1-3.5-3
			c-4.2-3-8.5-5.8-13.4-7.4C213.6,129.1,209.7,128.8,205.8,128.5z"/>
		<path class="st1" d="M210,108.9c-12.4-0.6-26.3-3.2-36.8,4.3c-11.7,8.4-22,20.5-26,34.7c-5.4,19,1.1,40.2-2.5,58.9
			c-0.4,2-0.9,4.1-1.5,6.1c-0.6,2-1.4,4-1.8,6.1c-0.4,1.7-0.5,3.4-0.3,5.1c0.7,4.4,4.1,8,7.9,10.3c7.3,4.4,16.3,5.1,24.5,3.4
			c8.2-1.7,15.7-5.7,22.5-10.4c4.1-2.8,8-5.8,11.6-9.4c3.8-3.8,7.1-8,10.1-12.5c1.5-2.3,3-4.7,4.4-7.1c3.3-5.5,6.6-11.1,10.8-15.9
			c4.8-5.7,10.6-10.3,16.1-15.3c4.3-3.9,8.5-8,11.3-13c0.7-1.2,1.2-2.4,1.7-3.7c2.5-6.6,2.1-14.8-2.6-20.3c-1.7-2-3.8-3.5-5.9-5.1
			c-7.3-5.3-14.8-10.5-23.4-13.2C223.6,109.7,216.8,109.3,210,108.9z"/>
		<path class="st1" d="M214.1,89.3c-17.3-0.7-37-4.2-51.3,7c-15.8,12.4-30.2,29.3-35.7,49.1c-7.3,26.5,2.5,56-2.8,82.3
			c-0.6,2.8-1.3,5.7-2.2,8.4c-0.9,2.8-2.1,5.6-2.8,8.5c-0.6,2.3-0.9,4.7-0.6,7.1c0.8,6.2,5.6,11.2,11,14.3
			c10.2,5.9,22.7,6.6,34.1,3.8c11.3-2.8,21.5-8.8,30.8-15.8c5.5-4.1,10.8-8.6,15.6-13.6c5.1-5.3,9.7-11.2,13.9-17.3
			c2.1-3.2,4.2-6.5,6.2-9.8c4.7-7.6,9.3-15.2,15.2-21.7c6.9-7.7,15.2-13.8,23.1-20.4c6.2-5.2,12.3-11,16.5-18c1-1.6,1.8-3.3,2.6-5.1
			c3.8-9.3,3.5-20.8-2.9-28.6c-2.3-2.8-5.3-5-8.2-7.1c-10.4-7.6-21.1-15.2-33.5-19.1C233.7,90.3,223.8,89.7,214.1,89.3z"/>
		<path class="st1" d="M218.2,69.7c-22.2-0.7-47.6-5.3-65.8,9.6c-19.9,16.3-38.5,38.2-45.4,63.6c-9.2,34.1,3.9,71.8-3,105.6
			c-0.7,3.6-1.7,7.3-3,10.8c-1.2,3.6-2.8,7.2-3.8,10.8c-0.8,3-1.3,6-0.9,9.1c0.9,7.9,7.2,14.4,14.1,18.4c13,7.5,29.2,8.2,43.6,4.3
			c14.4-3.9,27.4-12,39.1-21.2c6.9-5.5,13.5-11.4,19.6-17.9c6.5-6.9,12.3-14.3,17.6-22.1c2.8-4.1,5.4-8.3,8-12.4
			c6-9.6,12-19.3,19.7-27.5c9-9.7,19.9-17.2,30.1-25.5c8.2-6.6,16.1-14,21.6-22.9c1.3-2.1,2.4-4.3,3.4-6.6c5.2-11.9,5-26.9-3.3-37
			c-3-3.6-6.8-6.4-10.5-9.2c-13.6-9.9-27.5-19.9-43.5-24.9C243.7,70.9,230.9,70.1,218.2,69.7z"/>
		<path class="st1" d="M222.3,50.1c-27.1-0.8-58.2-6.3-80.3,12.3c-24.1,20.2-46.8,47-55.1,78c-11.1,41.7,5.4,87.5-3.2,129
			c-0.9,4.4-2.1,8.8-3.7,13.2c-1.6,4.4-3.5,8.8-4.7,13.2c-1,3.7-1.6,7.4-1.2,11.1c1.1,9.7,8.7,17.6,17.2,22.4
			c15.9,9,35.6,9.7,53.2,4.7c17.6-5,33.3-15.1,47.4-26.7c8.3-6.8,16.2-14.2,23.6-22.2c7.8-8.4,14.9-17.5,21.4-26.9
			c3.4-4.9,6.5-10,9.7-15.1c7.3-11.7,14.7-23.3,24.1-33.3c11-11.7,24.5-20.6,37-30.6c10.1-8,20-16.9,26.8-27.8
			c1.6-2.6,3.1-5.2,4.3-8c6.5-14.6,6.5-33-3.6-45.3c-3.6-4.4-8.3-7.9-12.9-11.2c-16.7-12.2-33.8-24.6-53.6-30.8
			C253.8,51.4,237.9,50.5,222.3,50.1z"/>
		<path class="st1" d="M66.8,137.9c-14.5,54.5,11.4,114.9-7.9,168c-3.4,9.4-8.3,18.8-7.2,28.8c1.2,11.5,10.2,20.8,20.3,26.5
			c18.8,10.6,42.1,11.2,62.8,5.1c20.7-6,39.1-18.2,55.7-32.1c20.1-16.9,37.9-36.5,52.8-58.2c13.1-19.2,24-40.1,40.1-56.9
			c13.1-13.7,29.1-24.1,44-35.7c14.9-11.6,29.3-25,37.1-42.2s8-39-4-53.7c-4.3-5.2-9.8-9.3-15.2-13.3
			c-19.8-14.5-40.1-29.3-63.6-36.6c-17.8-5.5-36.6-6.6-55.3-7c-32-0.8-68.8-7.3-94.8,14.9C103.3,69.6,76.5,101.3,66.8,137.9z"/>
	</g>
	<g class="st0">
		<path class="st1" d="M622.4,461.4c-0.3,2.6,0.1,5.7,2.3,7.2c1.4,0.9,3.1,1,4.8,1c1.4,0,2.9,0,4.2-0.5c1.4-0.6,2.5-1.6,3.5-2.7
			c3.4-3.6,6.6-7.4,9.5-11.5c0.9-1.3,1.9-2.7,2-4.3c0.2-2.4-1.7-4.7-3.9-5.6c-2.3-0.9-4.9-0.7-7.2-0.1
			C629.5,446.9,623.4,453.1,622.4,461.4z"/>
		<path class="st1" d="M632.2,426.6c-18.1,8-33.2,21.7-41.8,39.1c-1.2,2.5-2.4,5.2-2.4,8c-0.1,3.5,1.6,6.9,4.2,9.2
			c2.3,2,5.1,3.2,8,4c2.6,0.7,5.2,1,7.9,1.2c4.8,0.4,9.8,0.3,14.5-0.1c4-0.3,7.9-1.2,11.7-2.1c6.6-1.6,13-3.9,18.5-8.4
			c5.3-4.3,9.2-10.4,11.3-16.8c1.5-4.6,2.2-9.4,1.5-14.2c-0.2-1.7-0.6-3.4-1.2-5.1c-0.9-2.6-2.1-5.2-3.8-7.4
			c-1.8-2.3-4.2-4.1-6.6-5.7c-2.9-2-5.9-4.6-9.6-4.9C640.3,423.1,635.9,424.9,632.2,426.6z"/>
		<path class="st1" d="M626.7,408.4c-28.2,13.8-52.4,35.1-68.5,61.5c-2.3,3.8-4.5,7.9-4.9,12.4c-0.4,5.5,2.1,11,6.2,14.8
			c3.8,3.5,8.6,5.7,13.6,7.1c4.4,1.2,8.9,1.9,13.4,2.3c8.2,0.7,16.6,0.6,24.9,0.4c6.7-0.2,13.4-0.7,20-1.5
			c11.4-1.4,22.5-4.1,31.9-11.1c9-6.7,15.3-16.9,18.2-27.7c2.1-7.8,2.4-16,1-24c-0.5-2.9-1.2-5.7-2.1-8.5c-1.5-4.4-3.4-8.7-6.3-12.4
			c-3-3.8-6.9-6.9-10.7-9.7c-4.8-3.5-9.7-8.6-15.8-9.3C640.4,402,632.9,405.3,626.7,408.4z"/>
		<path class="st1" d="M621.2,390.2c-38.3,19.5-71.6,48.5-95.2,84c-3.4,5.1-6.7,10.7-7.4,16.9c-0.8,7.6,2.7,15.1,8.2,20.4
			c5.3,5.1,12.1,8.2,19.2,10.2c6.2,1.8,12.6,2.8,19,3.4c11.6,1.1,23.5,0.9,35.2,0.8c9.4-0.1,18.9-0.2,28.2-0.9
			c16.2-1.2,32.1-4.2,45.3-13.7c12.7-9.1,21.4-23.5,25-38.7c2.6-11.1,2.7-22.6,0.6-33.9c-0.8-4-1.8-8-3.1-11.9
			c-2.1-6.2-4.8-12.2-8.8-17.4c-4.1-5.4-9.5-9.6-14.9-13.8c-6.6-5.1-13.5-12.6-22.1-13.6C640.4,380.8,629.9,385.8,621.2,390.2z"/>
		<path class="st1" d="M615.7,371.8C567.3,397,525,433.7,493.9,478.3c-4.5,6.5-8.9,13.4-9.9,21.3c-1.1,9.6,3.3,19.3,10.2,26
			c6.8,6.6,15.7,10.6,24.7,13.3c8,2.3,16.2,3.7,24.5,4.5c15,1.4,30.4,1.1,45.5,1.2c12,0.1,24.3,0.3,36.4-0.3
			c21.1-1,41.6-4.4,58.8-16.4c16.5-11.5,27.5-30,31.9-49.6c3.2-14.4,3-29.3,0.1-43.8c-1-5.2-2.4-10.3-4.1-15.3
			c-2.7-8-6.1-15.7-11.2-22.4c-5.3-6.9-12.2-12.4-19.1-17.8c-8.5-6.7-17.3-16.6-28.3-17.9C640.4,359.6,626.8,366.1,615.7,371.8z"/>
		<path class="st1" d="M610.2,353.4c-58.6,30.8-109.9,75.3-148.5,128.9c-5.6,7.8-11.1,16.2-12.4,25.8c-1.5,11.6,3.9,23.4,12.2,31.6
			c8.3,8.1,19.2,13.1,30.3,16.4c9.8,2.9,19.9,4.6,30,5.6c18.4,1.8,37.3,1.3,55.8,1.7c14.7,0.2,29.8,0.8,44.6,0.4
			c25.9-0.8,51.2-4.6,72.2-19.1c20.2-13.9,33.6-36.6,38.7-60.5c3.8-17.6,3.3-35.9-0.4-53.6c-1.3-6.3-3-12.6-5.1-18.7
			c-3.3-9.7-7.5-19.3-13.7-27.4c-6.5-8.5-14.9-15.2-23.3-21.9c-10.4-8.2-21.1-20.6-34.6-22.2C640.4,338.2,623.8,346.2,610.2,353.4z"
			/>
		<path class="st1" d="M604.7,334.8c-68.7,36.6-129,88.7-175.2,151.4c-6.7,9.1-13.3,19-14.8,30.2c-1.8,13.6,4.5,27.5,14.2,37.2
			c9.8,9.7,22.7,15.6,35.9,19.5c32.7,9.7,67.6,8,101.8,8.7c47.5,1,99.3,6,138.5-20.9c23.9-16.4,39.7-43.1,45.6-71.5
			c5.9-28.4,2.3-58.2-6.9-85.6c-3.9-11.5-8.8-22.8-16.2-32.4c-7.6-10-17.6-18-27.5-25.9c-12.2-9.8-24.8-24.6-40.8-26.5
			C640.4,316.7,620.7,326.3,604.7,334.8z"/>
	</g>
	<g class="st0">
		<path class="st1" d="M621,174.4c1.1-2.5,2.3-5,4.2-6.9s4.8-3.1,7.4-2.3c2.2,0.7,3.8,2.8,4.7,4.9s1.4,4.5,2.3,6.7
			c1.1,2.7,2.7,5.1,3.8,7.7c1.1,2.7,1.4,5.9-0.1,8.3c-1.4,2.3-4.2,3.4-6.9,4.1c-2.8,0.7-5.7,1-8.5,1
			C614.2,197.8,617.3,182.6,621,174.4z"/>
		<path class="st1" d="M605.3,150.3c4.4-3.6,10.3-4.8,15.9-4.2c5.5,0.6,11.6,0.5,16.7,2.3c4.9,1.8,9.4,5.1,13,8.8
			c2,2,3.7,4.4,4.9,7.1c0.7,1.7,1.2,3.6,1.6,5.4c0.3,1.3,0.5,2.6,0.7,3.9c0.8,4.4,1.7,8.7,2.1,13.2c0.2,2.3,0.2,4.6-0.2,6.9
			c-0.9,4.8-3.7,8.9-7.6,11.8c-3.4,2.6-7.5,4.2-11.3,6.3c-5,2.7-9.7,6-14.9,8.1c-4.6,1.9-9.6,2.9-14.6,2.9c-5.5,0-10.8-2-14.8-5.1
			c-6.4-5-8.2-11.3-7.9-18.7c0.4-9.2,2.9-19.7,5.9-29.2c0.6-2,1.3-3.9,2-5.7C598.7,158.8,601.1,153.8,605.3,150.3z"/>
		<path class="st1" d="M585.7,133.1c6.8-5.2,15.9-6.7,24.4-6.1c9.8,0.7,21.1-0.2,30.4,2.6c9.1,2.7,17.1,8.6,24.3,14.7
			c3.3,2.9,6.4,6.1,8.4,10.2c1.2,2.6,1.9,5.4,2.2,8.2c0.3,2,0.4,4,0.6,6c0.5,6.8,1.1,13.5,1.1,20.4c0,3.7-0.2,7.5-1.2,11.1
			c-2.1,7.6-7.7,13.7-14.4,18c-6.3,4-13.4,6.6-20.1,10.1c-8.6,4.6-16.5,10.7-25.4,14.6c-7.9,3.5-16.5,5.2-25.1,5
			c-9.5-0.2-19-3.7-25.1-10.5c-7.8-8.8-8-20.1-6.3-31.5c2.2-14.1,6.1-29.3,10.3-43.7c0.9-2.9,1.8-5.8,2.8-8.6
			C575.6,145.7,579.2,138.1,585.7,133.1z"/>
		<path class="st1" d="M566.4,115.9c9.2-6.9,21.4-8.5,32.9-8c14.2,0.7,30.6-0.8,44.2,2.9c13.3,3.6,24.9,12.1,35.5,20.6
			c4.6,3.7,9.2,7.8,11.8,13.2c1.7,3.4,2.5,7.2,2.9,11c0.3,2.7,0.4,5.4,0.5,8.1c0.3,9.2,0.5,18.4,0.2,27.6
			c-0.2,5.2-0.6,10.4-2.1,15.3c-3.3,10.5-11.7,18.5-21.1,24.1c-9.2,5.4-19.4,8.9-28.8,14c-12.3,6.5-23.3,15.4-36,21.1
			c-11.1,5-23.4,7.5-35.7,7.2c-13.5-0.3-27.5-5.3-35.4-15.9c-9.4-12.6-7.9-28.8-4.7-44.2c4-19.1,9.2-38.9,14.8-58.2
			c1.1-3.9,2.3-7.8,3.6-11.6C552.7,132.6,557.6,122.5,566.4,115.9z"/>
		<path class="st1" d="M547,98.7c11.6-8.5,26.9-10.4,41.3-9.9c18.5,0.7,40.1-1.5,57.9,3.2c17.4,4.6,32.7,15.6,46.7,26.5
			c5.9,4.6,11.9,9.5,15.3,16.3c2.2,4.3,3.2,9,3.6,13.8c0.3,3.4,0.4,6.8,0.4,10.2c0.1,11.6-0.1,23.2-0.8,34.8
			c-0.4,6.6-1,13.3-3.1,19.5c-4.5,13.3-15.6,23.3-27.9,30.3c-12,6.9-25.3,11.3-37.6,17.8c-16,8.4-30.1,20.1-46.5,27.6
			c-14.4,6.6-30.4,9.8-46.2,9.3c-17.5-0.5-35.9-6.9-45.6-21.3c-11.2-16.5-7.8-37.6-3.1-57c5.8-24,12.4-48.6,19.2-72.7
			c1.4-4.8,2.8-9.7,4.4-14.5C529.8,119.5,535.9,106.8,547,98.7z"/>
		<path class="st1" d="M527.5,81.5c14.1-10.2,32.4-12.3,49.8-11.8c22.8,0.7,49.5-2.1,71.7,3.5c21.6,5.5,40.4,19.1,57.9,32.4
			c7.2,5.5,14.6,11.3,18.8,19.3c2.7,5.2,3.8,10.8,4.3,16.7c0.3,4.1,0.3,8.2,0.3,12.3c-0.2,14-0.7,28-1.7,42
			c-0.6,8-1.4,16.2-4.1,23.7c-5.7,16.2-19.6,28.1-34.6,36.5c-14.9,8.3-31.2,13.7-46.3,21.6c-19.6,10.3-36.9,24.8-57.1,34.1
			c-17.7,8.2-37.3,12.1-56.7,11.5c-21.5-0.7-44.4-8.5-55.9-26.7c-12.9-20.4-7.6-46.4-1.5-69.8c7.6-29,15.6-58.2,23.7-87.2
			c1.6-5.8,3.3-11.6,5.3-17.4C506.7,106.4,514.1,91.2,527.5,81.5z"/>
		<path class="st1" d="M566.3,50.7c-20.3-0.5-41.8,1.9-58.3,13.7c-21.3,15.3-29.6,42.5-36.6,67.8c-9.4,33.9-18.8,67.8-28.2,101.7
			c-7.6,27.3-14.7,58.3,0,82.5c13.2,21.9,40.6,31.2,66.2,32c23.1,0.8,46.3-3.9,67.3-13.7c23.9-11.1,44.3-28.3,67.6-40.6
			c17.9-9.4,37.3-15.8,55.1-25.5c17.8-9.7,34.4-23.6,41.4-42.6c3.3-8.9,4.2-18.5,5-28c1.4-16.4,2.2-32.8,2.7-49.2
			c0.3-11.5,0.2-23.6-5.2-33.8c-4.9-9.4-13.8-16-22.3-22.4c-21-15.6-43.4-31.8-69.2-38.3C625.3,47.9,593.5,51.4,566.3,50.7z"/>
	</g>
	<g class="st0">
		<path class="st1" d="M146.4,522.5c0,0.7,0,1.3,0.2,2c0.6,1.6,2.3,2.4,4,2.9c4.1,1.2,8.5,1.7,12.8,1.3c4.6-0.4,9.3-1.9,12.3-5.4
			c2.1-2.5,3.1-5.8,3.9-9c0.6-2.3,1.2-5.1-0.4-6.8c-1.3-1.4-3.5-1.5-5.5-1.5c-5.5,0-11.1,0-16.6,0
			C145.1,505.8,146.5,512.7,146.4,522.5z"/>
		<path class="st1" d="M141.1,487.7c-2.5,1.2-4.4,2.8-6,4.5c-8.5,9-8,22.6-3.7,36.2c0.4,1.2,0.9,2.5,1.5,3.6
			c1.9,3.3,5.2,5.5,8.5,7.3c8.4,4.4,18.2,6.5,27.8,6.7c5.1,0.1,10.4-0.3,15.1-2.2c4.1-1.6,7.7-4.3,10.8-7.4
			c5.8-5.8,10-12.9,12.8-20.7c2.2-6.1,2.7-13,0.4-19c-2-5.5-6.3-9.7-11.5-12.4c-4.3-2.3-9.5-3-14.5-2.8c-1.9,0.1-3.8,0.2-5.7,0.5
			c-6.1,0.8-11.8,2.9-17.9,3.6C152.8,486.1,146.3,485.2,141.1,487.7z"/>
		<path class="st1" d="M125.2,469.4c-3.5,2.3-5.8,5.5-7.8,8.7c-9.8,16-9.2,37.3-1,56.1c0.8,1.8,1.7,3.6,2.9,5.3
			c3.3,4.9,8.1,8.6,13.1,11.6c12.6,7.5,27.9,11.2,42.7,12.1c7.8,0.4,15.8,0.2,23.1-2.6c6.3-2.4,11.7-6.5,16.5-11.1
			c9.5-9.1,17.1-20,21.6-32.3c4-11,4.8-23.6,0.3-34.4c-4.1-9.8-12.3-17.3-21.9-21.7c-7.2-3.3-15.4-4.5-23.4-4.1
			c-3.1,0.1-6.1,0.5-9.2,1c-9.7,1.6-18.8,5.8-28.5,7.1C143.9,466.3,133,464.2,125.2,469.4z"/>
		<path class="st1" d="M109.4,451.1c-4.5,3.4-7.3,8.1-9.6,12.9c-11.2,23.1-10.5,52,1.8,76c1.2,2.4,2.6,4.7,4.2,6.9
			c4.7,6.5,10.9,11.7,17.6,16c16.8,10.7,37.5,16,57.7,17.5c10.4,0.8,21.2,0.6,31-3c8.4-3.1,15.7-8.7,22.2-14.8
			c13.2-12.3,24.1-27.1,30.4-44c5.9-15.9,6.8-34.2,0.1-49.7c-6.1-14.1-18.3-25-32.4-31c-10.1-4.3-21.4-5.9-32.4-5.4
			c-4.2,0.2-8.5,0.7-12.6,1.4c-13.4,2.4-25.8,8.7-39.1,10.7C135,446.5,119.8,443.2,109.4,451.1z"/>
		<path class="st1" d="M93.5,432.8c-5.5,4.5-8.8,10.8-11.4,17.1c-12.7,30.1-11.7,66.7,4.5,95.9c1.6,3,3.5,5.8,5.5,8.6
			c6.1,8.2,13.8,14.9,22.2,20.4c21.1,13.8,47.2,20.7,72.7,22.9c13.1,1.1,26.6,1.1,38.9-3.5c10.6-3.9,19.7-10.9,27.9-18.5
			c16.9-15.5,31.2-34.2,39.2-55.7c7.8-20.8,8.9-44.8-0.1-65c-8.1-18.4-24.2-32.7-42.8-40.3c-13-5.3-27.3-7.4-41.4-6.7
			c-5.4,0.3-10.8,0.9-16.1,1.9c-17,3.2-32.7,11.5-49.7,14.2C126.1,426.7,106.6,422.1,93.5,432.8z"/>
		<path class="st1" d="M77.7,414.5c-6.5,5.5-10.2,13.4-13.2,21.3c-14.1,37.1-12.8,81.4,7.3,115.9c2.1,3.5,4.3,6.9,6.8,10.2
			c7.5,9.8,16.7,18,26.8,24.7c25.3,17,56.9,25.5,87.7,28.3c15.7,1.4,32,1.5,46.8-3.9c12.7-4.7,23.6-13.1,33.6-22.2
			c20.5-18.8,38.2-41.3,48-67.3c9.7-25.7,11-55.3-0.3-80.4c-10.2-22.7-30.1-40.3-53.2-49.6c-15.9-6.4-33.2-8.8-50.4-8
			c-6.6,0.3-13.1,1.1-19.5,2.4c-20.7,4.1-39.7,14.4-60.4,17.7C117.3,406.9,93.4,401.1,77.7,414.5z"/>
		<path class="st1" d="M132.6,383.1c-24.1,4-52.4-3.1-70.6,13.1c-7.5,6.6-11.7,16.1-15,25.5c-17.2,48.8-13.5,106.8,18.2,147.6
			c31.1,40.1,83.5,58,134,62.8c18.4,1.8,37.4,2,54.8-4.3c14.9-5.4,27.6-15.3,39.3-26c24.2-22,45.3-48.4,56.9-79s13-65.9-0.5-95.7
			c-12.2-27-36.1-48-63.7-58.9c-26-10.2-55.1-11.9-82.3-6.4C179.3,366.6,156.9,379.1,132.6,383.1z"/>
	</g>
	<g class="st0">
		<path class="st1" d="M332.2,268.3c-0.3,1.8-0.2,3.9,1.2,5.2c0.9,0.8,2.1,1,3.3,1.2c2,0.3,4.1,0.3,6.2,0.2c2.1-0.1,4.1-0.4,6.1-0.9
			c1.4-0.3,2.7-0.7,3.8-1.6c2.4-2,2.6-5.5,2.5-8.7c0-2.2-0.2-4.8-2-6c-1.3-0.9-3-0.9-4.6-0.8c-3.9,0.2-8.2-0.4-11.2,2.2
			C334.7,261.5,332.8,264.6,332.2,268.3z"/>
		<path class="st1" d="M364.9,248.8c-1.8-2.6-5.1-3.6-8.3-3.9c-0.2,0-0.5,0-0.7-0.1c-3.3-0.2-6.5,0.3-9.8,0.3
			c-2.8-0.1-4.8-0.4-7.5,0.9c-1.7,0.8-3.3,2-4.7,3.3c-0.4,0.4-0.9,0.9-1.3,1.3c-4.8,4.8-8.7,10.4-11.7,16.4c-2.2,4.6-4.1,9.4-4,14.4
			c0,1.5,0.4,3.2,1.6,4.1c0.8,0.5,1.7,0.8,2.6,0.9c1.2,0.2,2.4,0.4,3.6,0.5c3.7,0.6,7.2,1.3,11.1,1.8c5,0.6,9.8,0.7,14.6-0.7
			c0.1,0,0.2-0.1,0.3-0.1c2.9-0.9,6.5-2.3,8.5-4.5c4-4.5,5.5-10.6,6.6-16.5c0.9-4.8,1.3-9.8,0.4-14.4
			C366,251.3,365.7,249.9,364.9,248.8z"/>
		<path class="st1" d="M376.5,239.9c-2.4-4.2-7.2-6.3-12.1-7c-0.3-0.1-0.7-0.1-1-0.1c-5-0.6-9.9,0.6-14.8,0.4
			c-4.3-0.2-7.1-1.1-11.4,1.2c-2.6,1.3-4.8,3.2-6.9,5.2c-0.7,0.7-1.3,1.3-2,2c-7.1,7.4-13.6,15.5-18.7,24.3
			c-4.4,7.7-8,15.8-8.5,24.6c-0.2,2.6,0.2,5.7,2.5,7.2c1.2,0.7,2.6,1,3.9,1.1c1.8,0.2,3.6,0.4,5.3,0.7c5.4,0.9,10.2,2.3,16.1,3.4
			c7.9,1.4,15.4,1.9,23.1-0.5c0.1,0,0.3-0.1,0.4-0.1c4.4-1.4,10.4-3.8,13.3-7.4c5.6-7,8.6-15.7,10.7-24.4c1.8-7.8,2.7-16,1.8-23.8
			C378,244.3,377.7,241.9,376.5,239.9z"/>
		<path class="st1" d="M388.2,231c-2.9-5.8-9.3-9-15.8-10.1c-0.5-0.1-0.9-0.1-1.4-0.2c-6.7-0.9-13.3,0.9-19.9,0.6
			c-5.8-0.3-9.4-1.7-15.2,1.4c-3.4,1.8-6.4,4.4-9.2,7.2c-0.9,0.9-1.7,1.8-2.6,2.7c-9.5,9.9-18.6,20.6-25.8,32.1
			c-6.7,10.8-11.9,22.2-13,34.8c-0.3,3.8,0.1,8.3,3.4,10.3c1.6,0.9,3.4,1.2,5.2,1.3c2.4,0.2,4.7,0.4,6.9,0.8
			c7.1,1.2,13.3,3.4,21.1,5c10.8,2.2,21.1,3,31.6-0.3c0.2-0.1,0.4-0.1,0.6-0.2c6-1.9,14.3-5.3,18.1-10.3
			c7.2-9.5,11.8-20.7,14.8-32.2c2.8-10.8,4.2-22.2,3.3-33.3C390.1,237.2,389.6,234,388.2,231z"/>
		<path class="st1" d="M399.8,222.2c-3.5-7.4-11.5-11.7-19.6-13.3c-0.6-0.1-1.2-0.2-1.7-0.3c-8.4-1.2-16.6,1.2-24.9,0.7
			c-7.4-0.5-11.7-2.4-19.1,1.7c-4.3,2.3-8,5.6-11.5,9.1c-1.1,1.1-2.2,2.2-3.2,3.4c-11.8,12.4-23.6,25.6-32.9,40
			c-9,13.8-15.8,28.6-17.5,44.9c-0.5,4.9,0,10.8,4.3,13.3c2,1.2,4.3,1.4,6.6,1.5c3,0.1,5.9,0.5,8.6,0.9c8.8,1.5,16.3,4.4,26.1,6.6
			c13.7,3,26.8,4.2,40.1,0c0.3-0.1,0.5-0.2,0.8-0.2c7.5-2.5,18.3-6.9,22.9-13.2c8.8-11.9,14.9-25.8,18.9-40.1
			c3.8-13.9,5.6-28.4,4.7-42.7C402.1,230.2,401.6,226,399.8,222.2z"/>
		<path class="st1" d="M411.4,213.3c-4.1-9-13.6-14.4-23.3-16.4c-0.7-0.1-1.4-0.3-2.1-0.4c-10.2-1.5-20,1.5-29.9,0.9
			c-8.9-0.6-13.9-3.1-22.9,1.9c-5.2,2.9-9.6,6.8-13.7,11c-1.3,1.3-2.6,2.7-3.9,4c-14.2,14.9-28.5,30.7-39.9,47.8
			c-11.2,16.9-19.7,35.1-21.9,55.1c-0.7,6.1-0.1,13.4,5.2,16.4c2.3,1.4,5.2,1.6,7.9,1.7c3.7,0.1,7,0.5,10.2,1
			c10.5,1.8,19.4,5.4,31.1,8.1c16.6,3.9,32.5,5.3,48.6,0.2c0.3-0.1,0.6-0.2,0.9-0.3c9.1-3,22.2-8.4,27.7-16.2
			c10.4-14.4,18.1-30.8,22.9-47.9c4.9-16.9,7.1-34.6,6.1-52.1C414.1,223.2,413.6,218,411.4,213.3z"/>
		<path class="st1" d="M331.8,187.7c-7.9,4.4-14.3,11.1-20.5,17.7c-16.5,17.4-33.5,35.8-47,55.7s-23.6,41.5-26.4,65.3
			c-0.8,7.2-0.2,15.9,6,19.5c2.7,1.6,6,1.8,9.2,1.9c18.3,0.5,30.2,6.6,48,10.9c19.8,4.7,38.8,6.5,58.2,0
			c10.6-3.6,26.1-9.9,32.6-19.1c12-16.9,21.2-35.9,27-55.8c5.9-19.9,8.5-40.8,7.6-61.5c-0.3-6.1-0.9-12.3-3.4-17.8
			c-5.1-11.3-17.3-18.1-29.5-19.9c-11.9-1.8-23.3,1.9-35,1C348.2,184.8,342.4,181.8,331.8,187.7z"/>
	</g>
	<g class="st0">
		<path class="st1" d="M407.7,398.3c-0.2,0.7-0.4,1.6,0,2.2c0.2,0.4,0.5,0.7,0.9,0.9c2.1,1.7,4.2,3.4,6.2,5.1c2.4,2,5,4,8.1,4.5
			c4.4,0.7,8.8-2,11.6-5.5c3-3.7,4.8-8.3,5.1-13c0-0.5,0-1-0.2-1.4c-0.3-0.6-0.9-0.9-1.5-1.2C427.1,384.7,411.8,384.1,407.7,398.3z"
			/>
		<path class="st1" d="M448.2,379.8c-0.8-0.7-1.8-1.2-2.9-1.8c-7.1-3.6-15.5-7.1-23.1-7.8c-7.3-0.7-17.1,7.8-22.5,13
			c-1.8,1.7-3.5,3.5-4.7,5.7c-0.7,1.4-1.2,3-1.5,4.6c-0.2,1.3-0.3,2.7-0.1,4c0.2,1.2,0.5,2.4,0.8,3.6c2.1,7.3,5.7,14.4,9.4,21.3
			c1.9,3.7,4.4,7.7,8.3,9.1c3.7,1.3,7.6,0,10.9-1.6c8.8-4.2,16.9-11.4,23.3-19.7c1.7-2.2,3.3-4.4,4.8-6.7c2.1-3.1,4-6.4,4.3-10.1
			c0.3-4.6-2-8.4-4.9-11.5C449.7,381.2,449,380.5,448.2,379.8z"/>
		<path class="st1" d="M456.9,368.6c-1.3-0.8-2.8-1.6-4.3-2.3c-10.1-5.2-22.1-10.8-32.8-12.3c-9.4-1.3-24,14-31.4,20.3
			c-2.7,2.3-5.4,4.7-7.1,7.8c-1.1,2-1.7,4.2-2.1,6.5c-0.3,1.9-0.3,3.9-0.2,5.8c0.2,2.1,0.4,4.2,0.7,6.3c2.1,12.9,7.3,25.3,12.5,37.5
			c2.7,6.3,6.2,13.3,12.7,15.3c6.2,1.9,12.5-1.4,17.7-4.9c13.3-8.9,25-20.8,35.1-33.8c2.7-3.4,5.2-6.9,7.7-10.5
			c3.3-4.8,6.6-10,6.6-15.8c0-7.3-5.1-12.9-10.9-17.2C459.8,370.4,458.3,369.4,456.9,368.6z"/>
		<path class="st1" d="M377.2,365.4c-3.6,2.9-7.3,5.9-9.6,9.9c-2.7,4.8-3.1,10.5-3,16c0.6,21.7,8.5,42.4,16.3,62.7
			c3.4,8.9,8,18.9,17.1,21.5c8.6,2.5,17.4-2.7,24.5-8.2c22.4-17.2,41-39.1,57.4-62.1c4.6-6.5,9.2-13.6,8.9-21.5
			c-0.4-12.3-12.2-20.8-23.2-26.4c-14.2-7.2-32.3-17-48.1-19.6C406.1,335.8,386.6,357.9,377.2,365.4z"/>
	</g>
	<g class="st0">
		<path class="st1" d="M36.6,26.3c2.1,1.4,4.7,1.7,7.2,1.6c5.5-0.3,10.7-3,14.6-6.9c1.9-2,3.5-4.3,4.6-6.8s1.8-5.2,1.8-8
			c-3.5,0-7,0-10.5,0c-3.5,0-7,0-10.5,0c-1.2,0-2.5,0-3.5,0.7c-0.9,0.6-1.4,1.5-1.9,2.4c-1.3,2.4-3.5,5.6-4.5,8.7
			S33.3,24.1,36.6,26.3z"/>
		<path class="st1" d="M25.5-9.1C19.2-2.5,13.5,6.5,12.2,16s1.3,19.2,8.8,26.1c4.1,3.8,9.7,6.3,15.3,5.9c3.5-0.3,6.7-1.6,9.7-3.3
			c4.1-2.2,7.9-5.1,11.3-8.3c3-2.9,5.7-6.2,8.5-9.4c1.5-1.7,3.1-3.5,4.8-5.1c2.8-2.7,5.8-5.1,8.4-7.8c2.4-2.5,4.7-5.4,5.3-8.9
			c0.8-4-0.6-8.1-2.7-11.1c-3.3-1.8-7.1-2.8-11-3.6c-5.5-1.2-12.2-3.2-18.9-4c-5.8-0.7-11.5-0.8-17-0.3c-1.9,0.2-3.9,0.4-5.6,1.3
			C27.7-11.6,26.6-10.3,25.5-9.1z"/>
		<path class="st1" d="M12.4-27.4C0.9-16.9-8-1.9-9.7,14s3.4,32.2,15.1,43.9c6.2,6.3,14.6,11,23.5,10.2c5.4-0.5,10.4-2.9,14.9-5.7
			c6.2-3.9,11.9-8.7,16.9-14.1c4.5-4.8,8.4-10.2,12.7-15.3c2.3-2.8,4.8-5.4,7.5-7.8c4.6-4,9.7-7.2,14.2-11.1
			c4.4-3.7,8.4-8.4,9.4-14.1c1.2-6.5-1.7-13.2-6.1-17.8c-5.2-3.6-11.6-5.6-17.9-7.3c-8.8-2.3-20.1-6.2-31.3-7.9
			c-8-1.2-16.1-1.5-23.5-0.6c-2.7,0.3-5.4,0.9-7.7,2C15.8-30.5,14.1-28.9,12.4-27.4z"/>
		<path class="st1" d="M-0.6-45.7c-16.9,14.3-29,35.5-31,57.8s5.6,45.1,21.3,61.6C-2,82.4,9.3,89.4,21.3,88.3
			c7.3-0.6,14-4.2,20.1-8.2c8.3-5.6,15.9-12.3,22.5-19.8c5.9-6.7,11-14.2,16.8-21.1c3.2-3.8,6.5-7.4,10.3-10.5
			c6.3-5.3,13.6-9.3,20-14.4c6.3-4.9,12.1-11.4,13.5-19.3c1.6-9.1-2.9-18.4-9.4-24.6C107.9-35.1,99-38,90.2-40.6
			C78-44,62.2-49.7,46.5-52.4c-10.3-1.7-20.6-2.3-30-0.9c-3.4,0.5-6.8,1.3-9.9,2.7C4-49.3,1.6-47.6-0.6-45.7z"/>
		<path class="st1" d="M-13.7-64C-36-46-51.2-18.6-53.6,10.2s7.7,58.1,27.6,79.4c10.4,11.1,24.6,20.2,39.7,18.9
			C23,107.6,31.4,103,39,97.7c10.5-7.2,19.9-15.9,28.1-25.6c7.3-8.7,13.7-18.3,20.9-27c4-4.8,8.2-9.3,13.1-13.2
			c8.1-6.6,17.5-11.4,25.8-17.6c8.2-6.2,15.8-14.4,17.6-24.6c2.1-11.7-4-23.6-12.7-31.3c-9.2-7.3-20.6-11.1-31.9-14.5
			c-15.5-4.6-35.9-12.2-56-15.7c-12.6-2.2-25.1-3-36.5-1.2c-4.2,0.7-8.2,1.7-12,3.4C-7.9-68.2-10.9-66.2-13.7-64z"/>
		<path class="st1" d="M-26.8-82.3c-27.7,21.6-46,55.3-48.7,90.5s9.8,71.1,33.8,97.1c12.5,13.5,29.6,24.9,47.9,23.2
			c11.2-1,21.3-6.7,30.4-13.2c12.6-8.9,23.9-19.5,33.8-31.3c8.7-10.6,16.3-22.3,25.1-32.8c4.8-5.8,9.9-11.2,15.8-16
			c9.9-7.9,21.4-13.5,31.6-20.9C153.2,7,162.4-3,164.6-15.5c2.5-14.2-5.1-28.7-16-38.1c-11.1-9.1-25.1-13.9-38.9-18.2
			c-18.8-5.7-43.8-15.1-68.4-19.7c-14.9-2.8-29.7-3.8-43-1.6c-4.9,0.8-9.7,2.1-14.1,4.1C-19.8-87.1-23.4-84.9-26.8-82.3z"/>
		<path class="st1" d="M-39.9-100.5C-73-75.3-94.3-35.3-97.4,6.3c-3.1,41.6,12,84.1,40.1,114.9c14.5,16,34.5,29.5,56,27.5
			c13.1-1.2,25-8,35.6-15.7C49,122.5,62.3,110,73.7,96c15.8-19.3,28.3-41.8,47.8-57.4c11.6-9.3,25.3-15.6,37.4-24.2
			c12.1-8.6,23.2-20.4,25.7-35c2.9-16.8-6.3-33.9-19.4-44.8c-13.1-10.9-29.6-16.7-45.9-21.8c-22.1-6.9-51.6-18.1-80.8-23.6
			S-19.2-116.3-39.9-100.5z"/>
	</g>
	<g class="st0">
		<path class="st1" d="M434.1,638.3c3.8,1.6,8,2.2,12.1,2.1c1.8,0,3.6-0.2,5.2-1c3.3-1.8,4.1-6.1,4.5-9.8c0.2-1.8,0.2-3.8-1.1-5
			c-1-0.9-2.5-1-3.9-1.1c-5.4-0.2-11.8-1.7-16.4,1.8C429.5,629,427.6,635.5,434.1,638.3z"/>
		<path class="st1" d="M415.2,620.3c-4.7,6.1-9.4,12.8-9.7,20.2c-0.3,7.2,3.8,14,10.8,17.9c7.4,4.2,16.2,5.6,24.7,5.4
			c7.9-0.2,15.8-2.4,22.2-7c6.8-5,11.2-13.9,11.6-22.5c0.2-4-2.1-7.3-5-10c-2.9-2.8-6.4-4.8-10.3-6c-0.3-0.1-0.5-0.2-0.8-0.2
			c-3.2-0.9-6.7-1.4-10-2.2c-4.1-1.1-7.9-2.8-12-3.9c-4.1-1.1-8.6-1.5-12.5,0.2C420.5,613.6,417.8,616.9,415.2,620.3z"/>
		<path class="st1" d="M396.1,615.3c-7,10.3-14.6,21.3-14.9,33.5c-0.3,11.9,6.8,23.1,17.5,29.6c11.1,6.7,24.4,8.9,37.4,8.6
			c14-0.4,28.1-4.4,39.1-13c10.3-8,18.2-21.8,18.7-35.3c0.2-6.3-4.5-10.9-8.9-15.1c-4.8-4.7-10.4-8.5-16.6-10.8
			c-0.4-0.2-0.8-0.3-1.3-0.5c-5.3-1.8-11.1-2.6-16.5-4.2c-6.7-2-12.9-5.4-19.6-7.6c-6.7-2.2-14.3-3.1-20.6-0.1
			C404,603.4,400,609.5,396.1,615.3z"/>
		<path class="st1" d="M376.9,610.3c-9.3,14.6-19.9,29.8-20.2,46.9c-0.3,16.6,9.7,32.2,24.2,41.3c14.8,9.2,32.7,12.3,50.1,11.9
			c20.1-0.6,40.4-6.5,56.1-19c13.9-11.1,25.2-29.7,25.8-48c0.2-8.6-6.9-14.4-12.8-20.2c-6.7-6.5-14.3-12.2-22.9-15.7
			c-0.6-0.2-1.2-0.5-1.8-0.7c-7.4-2.7-15.4-3.8-23-6.2c-9.4-3-18-8-27.2-11.2c-9.3-3.3-19.9-4.7-28.8-0.4
			C387.5,593.2,382.2,602,376.9,610.3z"/>
		<path class="st1" d="M357.7,605.3c-11.6,18.8-25.2,38.3-25.4,60.3c-0.3,21.3,12.7,41.3,30.9,53c18.4,11.7,40.9,15.7,62.7,15.1
			c26.2-0.8,52.7-8.6,73.1-25c17.5-14.1,32.3-37.6,32.8-60.7c0.3-10.8-9.2-17.9-16.7-25.2c-8.6-8.4-18.2-15.9-29.3-20.5
			c-0.8-0.3-1.5-0.6-2.3-0.9c-9.5-3.6-19.8-5-29.5-8.2c-12-3.9-23-10.5-34.8-14.9c-11.9-4.3-25.6-6.2-36.9-0.7
			C371.1,582.9,364.3,594.5,357.7,605.3z"/>
		<path class="st1" d="M338.5,600.3c-13.9,23.1-30.4,46.7-30.7,73.6c-0.3,26,15.7,50.5,37.7,64.6c22.1,14.2,49.2,19.1,75.4,18.3
			c32.3-0.9,65-10.6,90.1-31c21.2-17.1,39.3-45.4,39.9-73.5c0.3-13.1-11.6-21.5-20.6-30.3c-10.5-10.3-22.1-19.6-35.6-25.4
			c-0.9-0.4-1.8-0.8-2.8-1.1c-11.6-4.5-24.2-6.2-36-10.2c-14.7-4.9-28-13.1-42.4-18.5c-14.5-5.4-31.2-7.8-45.1-1
			C354.6,572.7,346.5,587.1,338.5,600.3z"/>
		<path class="st1" d="M500.3,590c-13.7-5.4-28.5-7.5-42.5-12.2c-17.3-5.9-33-15.7-50.1-22.2c-17.1-6.5-36.9-9.4-53.2-1.3
			c-16.4,8.1-25.8,25.3-35.1,41c-16.2,27.3-35.7,55.2-35.9,87c-0.3,30.7,18.6,59.6,44.4,76.3c25.7,16.7,57.4,22.5,88.1,21.6
			c38.4-1.1,77.3-12.7,107.1-37c24.7-20.2,46.3-53.3,47-86.2c0.3-15.4-14-25-24.5-35.3C532.3,608.7,517.6,596.8,500.3,590z"/>
	</g>
	<g class="st0">
		<path class="st1" d="M-61.5,248.8c-1.5-0.3-3.1,0.7-4,2c-0.8,1.3-1.1,3-1.2,4.5c-0.4,4.2-0.5,8.5-0.3,12.7c0,0.5,0.1,1,0.4,1.4
			c0.2,0.3,0.6,0.5,0.9,0.6c3.1,1.3,6.7,0.6,9.5-1.4s4.6-4.9,5.7-8c0.9-2.4,1.2-5.3-0.6-7.1c-0.6-0.6-1.4-1-2.2-1.4
			c-2.6-1.2-5.2-2.4-7.7-3.6"/>
		<path class="st1" d="M-67.8,235.9c-2.8-0.7-4.9,1.9-6.4,4.5c-1.4,2.5-2.3,5.2-2.9,8c-0.1,0.5-0.2,1-0.3,1.5
			c-0.8,4.3-1,8.7-1.1,13.1c0,2.6,0,5.3,0.5,7.9c0.4,2,1.1,3.8,1.9,5.6c0.4,0.9,0.9,1.8,1.5,2.6c0.4,0.5,1,0.9,1.5,1.3
			c4.7,3.2,10.3,4.2,15.6,2.7c3.2-0.9,6-2.9,8.5-5.3c1.9-1.8,3.8-3.7,5.2-5.9c2.7-4.2,3.6-9.3,4.4-14.2c0.7-4.2,1-9.2-1.6-12.6
			c-0.9-1.2-2.1-2-3.5-2.8c-3.8-2.1-8.3-1.9-12.5-2.6c-2.2-0.3-4.4-1-6.5-1.7c-1.4-0.5-2.8-1.9-4.1-2.3"/>
		<path class="st1" d="M-74,223c-4-1.1-6.6,3.1-8.8,6.9c-2.2,3.8-3.6,7.9-4.6,12.2c-0.2,0.8-0.3,1.6-0.5,2.3
			c-1.3,6.6-1.7,13.3-1.8,20c-0.1,4.1,0,8.2,1.1,12.1c0.8,3,2.2,5.7,3.7,8.3c0.8,1.3,1.7,2.7,2.7,3.9c0.6,0.7,1.3,1.3,2.1,1.9
			c6.4,5.2,13.9,8.2,21.8,6.8c5.6-0.9,10.5-4.6,14.7-8.5c3.3-3,6.5-6.1,9-9.9c4.7-7.1,5.8-15.9,6.8-24.3c0.7-6.1,0.9-13.2-2.5-18
			c-1.2-1.7-2.8-3.1-4.7-4.2c-5.9-3.5-13.2-2.3-19.9-2.8c-3.5-0.2-7-1-10.4-2.2c-2.9-1-5.5-3.9-8.2-4.6"/>
		<path class="st1" d="M-80.3,210.1c-5.3-1.4-8.3,4.3-11.2,9.4c-2.9,5.1-5,10.7-6.4,16.4c-0.3,1-0.5,2.1-0.7,3.1
			c-1.8,8.8-2.3,17.9-2.5,26.9c-0.1,5.5,0,11,1.6,16.2c1.2,4,3.2,7.6,5.5,11c1.2,1.8,2.4,3.5,3.9,5.1c0.8,0.9,1.7,1.8,2.6,2.6
			c8,7.1,17.6,12.2,28,10.9c8-1,14.9-6.3,21-11.8c4.7-4.2,9.3-8.6,12.8-13.9c6.6-10.1,8.1-22.5,9.1-34.4c0.7-7.9,0.7-17.1-3.5-23.4
			c-1.5-2.3-3.5-4.2-6-5.7c-8-4.9-18.1-2.7-27.3-2.9c-4.8-0.1-9.7-1.1-14.3-2.7c-4.3-1.5-8.3-5.8-12.3-7"/>
		<path class="st1" d="M-86.5,197.1c-6.5-1.8-10,5.5-13.6,11.8c-3.6,6.5-6.3,13.4-8.1,20.6c-0.3,1.3-0.6,2.6-0.9,3.9
			c-2.4,11.1-3,22.5-3.1,33.8c-0.1,6.9,0.1,13.9,2.1,20.4c1.6,5,4.3,9.5,7.4,13.8c1.6,2.2,3.2,4.3,5,6.3c1,1.1,2.1,2.2,3.2,3.2
			c9.7,9.1,21.3,16.3,34.2,15.1c10.5-1,19.3-7.9,27.2-15c6.1-5.4,12.1-11,16.6-17.9c8.5-13,10.4-29.1,11.5-44.6
			c0.7-9.8,0.6-21-4.5-28.9c-1.8-2.9-4.2-5.2-7.2-7.1c-10.1-6.3-23-3-34.8-3.1c-6.2-0.1-12.3-1.2-18.2-3.2c-5.8-2-11.1-7.7-16.4-9.3
			"/>
		<path class="st1" d="M-92.8,184.2c-7.7-2.2-11.8,6.7-16,14.3c-4.3,7.8-7.6,16.2-9.9,24.8c-0.4,1.6-0.8,3.2-1.1,4.7
			c-2.9,13.3-3.7,27.1-3.8,40.8c-0.1,8.3,0.1,16.7,2.7,24.6c2,6,5.4,11.4,9.2,16.5c1.9,2.6,4,5.1,6.2,7.5c1.2,1.3,2.5,2.6,3.7,3.9
			c11.4,11.1,24.9,20.3,40.3,19.2c12.9-1,23.8-9.6,33.4-18.2c7.4-6.6,14.9-13.5,20.3-21.9C2.7,284.4,5,264.6,6.2,245.7
			c0.7-11.6,0.4-24.9-5.5-34.3c-2.1-3.4-4.9-6.3-8.5-8.6c-12.2-7.7-27.8-3.4-42.2-3.3c-7.5,0-15-1.3-22.1-3.7
			c-7.2-2.4-13.8-9.7-20.5-11.6"/>
		<path class="st1" d="M-99.1,171.3c-9-2.6-13.5,7.8-18.4,16.7c-5.1,9.1-8.9,18.9-11.6,29c-0.5,1.8-0.9,3.7-1.3,5.6
			c-3.5,15.6-4.4,31.7-4.5,47.7c-0.1,9.7,0.1,19.6,3.2,28.7c2.4,7.1,6.4,13.3,11,19.2c2.3,3,4.8,5.9,7.4,8.8c1.4,1.5,2.8,3,4.3,4.5
			c13,13,28.6,24.4,46.5,23.3c15.3-0.9,28.2-11.3,39.7-21.5c8.8-7.9,17.6-16,24.1-25.8c12.4-18.9,15-42.3,16.3-64.8
			c0.8-13.5,0.3-28.8-6.5-39.8c-2.4-4-5.6-7.4-9.8-10c-14.3-9.1-32.7-3.8-49.6-3.5c-8.8,0.1-17.6-1.3-26-4.1
			c-8.7-2.9-16.6-11.6-24.6-13.9"/>
		<path class="st1" d="M-105.3,158.4c-10.2-2.9-15.2,9-20.8,19.2c-5.8,10.5-10.3,21.6-13.3,33.2c-0.6,2.1-1.1,4.2-1.6,6.4
			c-4,17.9-5,36.3-5.2,54.6c-0.1,11.1,0.1,22.4,3.8,32.9c2.8,8.1,7.5,15.2,12.8,21.9c2.7,3.4,5.6,6.8,8.5,10
			c1.6,1.7,3.2,3.5,4.9,5.2c14.7,15,32.2,28.4,52.7,27.4c17.7-0.9,32.6-12.9,45.9-24.7c10.2-9.1,20.4-18.4,27.9-29.8
			c14.3-21.8,17.3-48.9,18.7-74.9c0.8-15.3,0.1-32.7-7.4-45.2c-2.7-4.6-6.3-8.5-11-11.4c-16.4-10.5-37.6-4.1-57-3.7
			c-10.1,0.2-20.3-1.4-29.9-4.6C-86.6,171.2-95.8,161.1-105.3,158.4"/>
		<path class="st1" d="M-111.6,145.5c-11.5-3.3-17,10.2-23.2,21.6c-6.5,11.8-11.6,24.4-15.1,37.4c-0.6,2.4-1.2,4.8-1.8,7.2
			c-4.5,20.1-5.7,40.9-5.9,61.6c-0.1,12.5,0.2,25.3,4.3,37.1c3.2,9.1,8.5,17.1,14.6,24.7c3.1,3.9,6.4,7.6,9.7,11.2
			c1.8,1.9,3.6,3.9,5.4,5.8c16.3,16.9,35.9,32.5,58.9,31.5c20.1-0.9,37.1-14.6,52.1-28c11.6-10.3,23.2-20.9,31.7-33.8
			c16.2-24.7,19.7-55.5,21-85c0.8-17.1,0-36.6-8.4-50.7c-3-5.1-7.1-9.5-12.3-12.9c-18.5-11.9-42.5-4.5-64.5-3.9
			c-11.4,0.3-22.9-1.5-33.8-5.1C-90.3,160.2-100.8,148.6-111.6,145.5"/>
		<path class="st1" d="M-160.3,198.2c-6.7,24.8-8.3,50.7-8.5,76.5c-0.1,13.9,0.2,28.1,4.8,41.2c5.4,15.3,16.4,27.9,27.3,39.9
			c19.1,21.1,42.6,43.1,71,42c22.5-0.9,41.5-16.3,58.4-31.2c13-11.5,26-23.3,35.5-37.8c18.1-27.7,22-62.1,23.4-95.2
			c1.1-25.9-1.2-56.4-22.9-70.5c-20.6-13.3-47.4-4.8-71.9-4.1c-12.8,0.4-25.6-1.6-37.6-5.6c-13.1-4.3-24.9-17.4-36.9-20.9
			c-12.7-3.7-18.7,11.4-25.6,24.1C-150.7,169.8-156.3,183.7-160.3,198.2z"/>
	</g>
	<g class="st0">
		<path class="st1" d="M30.5,465.9c-4,31.5-8,63-12.8,94.4c-4,26-8.7,52.4-20.8,75.8c-22.8,44-72,72.4-121.6,72.4
			c-12.4,0-24.9-1.7-36.1-6.9c-13-6.1-23.4-16.5-33.3-26.9c-10.6-11.2-21.2-22.9-27.6-36.9c-6.6-14.4-8.6-30.4-9.3-46.2
			c-0.6-12-0.4-24.1,3-35.6c5-16.8,16.7-30.8,30.2-42c13.5-11.1,28.9-19.7,43.7-29c23.5-14.7,45.9-31.1,68-47.9
			c32.3-24.6,65.4-55.1,102.5-72.4c20.9-9.8,18.6,21.4,19,36C35.9,422.6,33.2,444.3,30.5,465.9z"/>
		<path class="st1" d="M4.6,383.7c19.1-9,17.4,18.7,18,31.9c0.9,19.6-1.4,39.4-3.8,59.2c-3.5,28.7-7.2,57.6-11.7,86.1
			c-0.7,4.3-1.4,8.5-2.1,12.7c-3.4,19.5-8.2,38.8-17.4,56.1c-20.8,39.2-64.7,64.5-109.1,64.5c-11.3,0-22.8-1.5-33.1-6.1
			c-12-5.4-21.6-14.7-30.8-23.9c-9.4-9.9-18.6-20.6-24.3-33.3c-5.7-12.9-7.5-27.4-8-41.6c-0.4-10.8-0.2-21.7,2.9-32.1
			c4.5-15.1,15.1-27.8,27.2-37.9c12.1-10.1,25.9-17.9,39.2-26.3c21.1-13.4,41.2-28.3,61-43.5C-58.4,426.8-28.6,399.2,4.6,383.7z"/>
		<path class="st1" d="M-7.1,402.6c17.3-8.2,16.2,16,17,27.7c1.2,17.4-0.7,35.4-2.9,53.4c-3.1,26-6.5,52.2-10.6,77.7
			c-0.6,3.9-1.3,7.7-1.9,11.5c-3.2,17.6-7.8,34.9-16.2,50.4c-18.8,34.3-57.3,56.6-96.5,56.5c-10.3,0-20.7-1.3-30.1-5.4
			c-10.9-4.7-19.8-12.8-28.3-20.9c-8.3-8.7-16.1-18.3-20.9-29.8c-4.8-11.5-6.3-24.3-6.7-37c-0.3-9.6-0.1-19.3,2.8-28.5
			c4.1-13.4,13.4-24.8,24.1-33.8c10.7-9.1,22.9-16.1,34.6-23.7c18.7-12.1,36.5-25.5,54-39.1C-62.7,441.1-36.3,416.3-7.1,402.6z"/>
		<path class="st1" d="M-18.7,421.4c15.5-7.4,15,13.3,16,23.6c1.4,15.2-0.1,31.3-1.9,47.5c-2.6,23.3-5.8,46.8-9.4,69.4
			c-0.6,3.5-1.2,6.9-1.8,10.2c-3,15.7-7.3,31.1-15,44.7c-16.7,29.4-49.9,48.7-83.9,48.6c-9.3,0-18.6-1.1-27.1-4.6
			c-9.9-4-18-11-25.7-18c-7.1-7.5-13.6-15.9-17.6-26.2c-4-10.1-5.2-21.3-5.4-32.4c-0.2-8.4,0.1-16.9,2.6-25
			c3.6-11.8,11.8-21.7,21.1-29.8c9.3-8,19.9-14.3,30.1-21.1c16.2-10.8,31.7-22.6,46.9-34.8C-67.1,455.4-44,433.5-18.7,421.4z"/>
		<path class="st1" d="M-30.3,440.3c13.7-6.6,13.8,10.6,14.9,19.4c1.7,13,0.6,27.2-0.9,41.7c-2.2,20.5-5,41.5-8.3,61.1
			c-0.5,3.1-1.1,6.1-1.6,9c-2.7,13.7-6.9,27.2-13.8,39c-14.6,24.6-42.5,40.8-71.4,40.7c-8.2,0-16.5-1-24.1-3.9
			c-8.8-3.4-16.1-9.2-23.2-15c-5.9-6.2-11.1-13.6-14.3-22.6c-3.1-8.7-4-18.3-4.1-27.9c0-7.2,0.3-14.5,2.5-21.4
			c3.2-10.1,10.1-18.7,18-25.7c7.9-7,16.9-12.6,25.6-18.5c13.8-9.5,27-19.8,39.9-30.4C-71.5,469.6-51.7,450.6-30.3,440.3z"/>
		<path class="st1" d="M-42,459.2c11.9-5.8,12.6,7.9,13.9,15.2c2,10.8,1.3,23.2,0,35.8c-1.7,17.8-4.3,36.1-7.2,52.8
			c-0.5,2.7-1,5.3-1.5,7.7c-2.5,11.8-6.4,23.4-12.7,33.2c-12.5,19.7-35.2,32.8-58.8,32.8c-7.2,0-14.4-0.8-21.1-3.1
			c-7.7-2.7-14.3-7.4-20.7-12c-4.7-5-8.5-11.3-10.9-19.1c-2.2-7.3-2.9-15.2-2.8-23.3c0.1-6,0.5-12.1,2.4-17.9
			c2.7-8.4,8.5-15.7,15-21.7c6.5-5.9,13.9-10.8,21-15.9c11.4-8.2,22.3-17,32.9-26C-75.9,483.9-59.5,467.7-42,459.2z"/>
		<path class="st1" d="M-53.6,478.1c10.1-5,11.4,5.2,12.9,11.1c2.2,8.5,1.9,19.1,1,30c-1.3,15-3.5,30.7-6.1,44.4
			c-0.4,2.3-0.9,4.4-1.3,6.5c-2.2,9.9-5.9,19.5-11.5,27.5c-10.3,14.9-27.8,24.9-46.3,24.9c-6.1,0-12.4-0.6-18.1-2.4
			c-6.7-2-12.5-5.5-18.1-9c-3.5-3.7-6-8.9-7.6-15.5c-1.4-5.8-1.8-12.2-1.4-18.7c0.2-4.8,0.7-9.7,2.3-14.4c2.3-6.7,6.8-12.7,12-17.6
			c5.1-4.9,10.9-9,16.5-13.3c8.9-6.9,17.6-14.2,25.9-21.6C-80.3,498.1-67.2,484.8-53.6,478.1z"/>
		<path class="st1" d="M-65.2,497c8.2-4.2,10.2,2.5,11.9,6.9c2.4,6.3,2.6,15,2,24.2c-0.8,12.3-2.8,25.3-5,36.1
			c-0.4,1.9-0.8,3.6-1.2,5.3c-2,8-5.4,15.7-10.3,21.8c-8,10.1-20.4,17-33.7,17c-5.1,0-10.3-0.4-15.1-1.6c-5.6-1.4-10.7-3.7-15.6-6
			c-2.3-2.5-3.5-6.6-4.2-11.9c-0.6-4.4-0.6-9.2-0.1-14.1c0.4-3.6,0.9-7.3,2.2-10.8c1.8-5.1,5.2-9.6,8.9-13.5
			c3.7-3.9,7.9-7.2,12-10.7c6.5-5.6,12.8-11.4,18.9-17.3C-84.7,512.3-75,501.9-65.2,497z"/>
		<path class="st1" d="M-76.9,515.8c6.4-3.4,8.9-0.2,10.8,2.8c2.7,4.1,3.2,10.9,2.9,18.3c-0.4,9.5-2.1,19.9-3.9,27.8
			c-0.3,1.5-0.7,2.8-1,4c-1.8,6.1-4.8,11.8-9.1,16.1c-5.5,5.4-13,9.1-21.1,9.1c-4.1,0-8.2-0.2-12.1-0.8c-4.6-0.7-8.9-1.9-13.1-3.1
			c-1.1-1.2-1.1-4.2-0.9-8.4c0.2-2.9,0.5-6.1,1.2-9.5c0.5-2.4,1.1-4.8,2-7.3c1.4-3.4,3.5-6.6,5.9-9.5c2.3-2.8,4.9-5.4,7.4-8
			c4-4.2,8.1-8.6,11.8-12.9C-89.1,526.5-82.7,518.9-76.9,515.8z"/>
		<path class="st1" d="M-114.7,579.4c6.6,0.1,13.1,0.1,19.7,0.2c2.9,0,5.9,0,8.6-1.2c4.1-1.9,6.4-6.2,7.9-10.4
			c3.5-9.2,9.6-45-10-33.3C-95,538.6-114.5,579.4-114.7,579.4z"/>
	</g>
	<g class="st0">
		<path class="st1" d="M756.2,301.9c-0.5,1.4-1,2.9-0.6,4.4c0.4,1.6,1.6,2.7,2.9,3.8c2.4,2.1,4.9,4.3,8,5.3c5.4,1.7,11.8-1,14.3-6.1
			c2.5-5.1,0.6-11.8-4.1-15C767.6,288.3,759.5,292.5,756.2,301.9z"/>
		<path class="st1" d="M787.7,288.8c-3.1-2.9-6.5-5.1-10.1-6.2c-3-0.9-6.2-1.1-9.1-0.3c-2.8,0.7-5.4,1.6-7.5,3.7
			c-1.4,1.4-2.6,3.1-3.8,4.7c-2,2.7-4.2,5.5-6,8.5c-1.4,2.2-2.6,4.6-2.8,7.2c-0.1,0.9,0,1.7,0.3,2.5c0.3,0.9,0.9,1.6,1.5,2.3
			c1,1.1,2.1,2.1,3.2,3c4,3.4,8.6,6.2,13,9.1c1,0.7,2.1,1.4,3.2,1.8c3.3,1.2,7.1,0.9,10.4-0.4c3.3-1.3,6-3.8,8.1-6.5
			c2.6-3.4,4.8-7,5.4-11.2c0.3-2.3,0.2-4.6-0.1-6.9c-0.3-2.1-0.8-4.2-1.7-6.1C790.7,292.2,789.3,290.4,787.7,288.8z"/>
		<path class="st1" d="M798.6,283.4c-4.1-4.4-8.7-7.9-13.9-9.8c-4.2-1.5-8.8-1.9-13-0.9c-4,1-7.9,2.1-10.8,5.2c-2,2.1-3.5,4.6-5.2,7
			c-2.9,4-6.3,7.7-9.3,11.8c-2.2,3.1-4.2,6.3-4.9,10c-0.2,1.3-0.4,2.6,0,3.9c0.4,1.3,1.3,2.5,2.2,3.5c1.5,1.7,3.1,3.2,4.8,4.6
			c6.1,5,13.2,9,19.7,13.6c1.5,1.1,3,2.3,4.8,3c4,1.6,8.5,1.2,12.6-0.3c4-1.5,7.3-4.4,10.2-7.5c4.3-4.7,8.4-9.7,9.9-16
			c0.8-3.4,0.9-6.9,0.6-10.4c-0.2-3.2-0.7-6.3-1.8-9.3C802.9,288.7,800.9,285.8,798.6,283.4z"/>
		<path class="st1" d="M809.5,277.9c-5-5.8-11-10.7-17.8-13.4c-5.4-2.1-11.4-2.8-17-1.4c-5.3,1.3-10.3,2.5-14.2,6.7
			c-2.5,2.8-4.4,6.1-6.7,9.2c-3.8,5.2-8.5,9.9-12.6,15.1c-3.1,3.9-5.9,8.1-7.1,12.8c-0.4,1.7-0.7,3.5-0.2,5.2
			c0.5,1.8,1.6,3.3,2.9,4.8c2,2.2,4.1,4.2,6.4,6.1c8.2,6.7,17.9,11.7,26.4,18.1c2,1.5,4,3.1,6.3,4.1c4.6,1.9,10,1.5,14.7-0.2
			c4.7-1.7,8.7-5,12.2-8.4c6.1-6,12-12.5,14.3-20.7c1.3-4.5,1.5-9.2,1.4-13.8c-0.1-4.3-0.5-8.5-2-12.6
			C815,285.1,812.4,281.3,809.5,277.9z"/>
		<path class="st1" d="M820.3,272.4c-6-7.2-13.2-13.5-21.7-17c-6.6-2.7-14-3.6-21-2c-6.5,1.5-12.8,2.9-17.5,8.2
			c-3.1,3.5-5.4,7.6-8.1,11.5c-4.6,6.5-10.7,12.2-15.9,18.3c-4,4.7-7.5,9.8-9.2,15.7c-0.6,2.1-1,4.4-0.4,6.6c0.6,2.3,2,4.2,3.6,6
			c2.5,2.8,5.2,5.3,8,7.6c10.3,8.3,22.5,14.5,33.1,22.5c2.5,1.9,4.9,4,7.9,5.2c5.3,2.2,11.5,1.8,16.9-0.1c5.4-1.9,10.1-5.6,14.2-9.3
			c8-7.2,15.5-15.3,18.7-25.5c1.7-5.6,2.2-11.5,2.2-17.3c0-5.3-0.4-10.7-2.1-15.8C827.1,281.6,823.9,276.8,820.3,272.4z"/>
		<path class="st1" d="M831.1,266.9c-7-8.7-15.5-16.3-25.6-20.6c-7.8-3.3-16.7-4.5-24.9-2.5c-7.8,1.8-15.3,3.4-20.9,9.7
			c-3.7,4.2-6.3,9.1-9.6,13.7c-5.5,7.8-12.9,14.4-19.2,21.6c-4.9,5.5-9.2,11.5-11.4,18.5c-0.8,2.6-1.3,5.3-0.7,7.9
			c0.6,2.7,2.4,5.1,4.2,7.2c2.9,3.4,6.2,6.4,9.7,9.2c12.4,10,27.2,17.2,39.7,27c3,2.3,5.9,4.9,9.4,6.4c6,2.6,12.9,2.1,19,0
			c6.1-2.2,11.4-6.1,16.3-10.3c9.8-8.4,19.1-18,23.1-30.3c2.2-6.7,2.8-13.8,3-20.8c0.1-6.4-0.2-12.9-2.2-19.1
			C839.2,278.1,835.4,272.2,831.1,266.9z"/>
		<path class="st1" d="M842,261.5c-8-10.1-17.8-19.1-29.5-24.2c-9-3.9-19.3-5.3-28.9-3.1c-9.1,2.1-17.8,3.8-24.3,11.2
			c-4.2,4.9-7.3,10.7-11.1,15.9c-6.4,9-15,16.6-22.5,24.9c-5.8,6.4-10.9,13.2-13.5,21.3c-1,3-1.6,6.2-0.9,9.3
			c0.7,3.2,2.8,5.9,4.9,8.4c3.4,3.9,7.3,7.5,11.3,10.7c14.4,11.6,31.8,19.9,46.4,31.5c3.5,2.7,6.9,5.7,10.9,7.5
			c6.6,2.9,14.4,2.4,21.2,0.1c6.8-2.4,12.8-6.7,18.3-11.2c11.7-9.6,22.6-20.8,27.6-35.1c2.7-7.7,3.5-16,3.7-24.2
			c0.2-7.5-0.1-15.1-2.3-22.3C851.2,274.5,846.9,267.7,842,261.5z"/>
		<path class="st1" d="M852.8,256c-9-11.6-20-21.9-33.3-27.8c-10.2-4.5-21.9-6.2-32.9-3.7c-10.3,2.4-20.3,4.2-27.6,12.7
			c-4.8,5.6-8.2,12.2-12.5,18.2c-7.3,10.3-17.2,18.8-25.8,28.1c-6.7,7.2-12.5,14.9-15.6,24.1c-1.2,3.4-1.9,7.1-1.1,10.6
			c0.8,3.7,3.1,6.8,5.6,9.7c3.9,4.5,8.3,8.5,12.9,12.2c16.5,13.3,36.4,22.7,53.1,36c4,3.2,7.8,6.6,12.5,8.6
			c7.3,3.2,15.8,2.7,23.4,0.2c7.5-2.6,14.2-7.2,20.4-12.1c13.5-10.7,26.2-23.6,32-39.8c3.1-8.8,4.1-18.3,4.5-27.7
			c0.3-8.6,0.1-17.3-2.4-25.6C863.3,271,858.3,263.2,852.8,256z"/>
		<path class="st1" d="M863.6,250.5c-10-13-22.3-24.7-37.2-31.4c-11.4-5.1-24.6-7-36.9-4.2c-11.6,2.6-22.8,4.7-31,14.2
			c-5.4,6.3-9.2,13.7-14,20.4c-8.2,11.5-19.4,21-29.1,31.4c-7.5,8-14.2,16.6-17.8,26.9c-1.3,3.8-2.2,8-1.4,12
			c0.9,4.1,3.5,7.7,6.3,10.9c4.4,5.1,9.3,9.6,14.5,13.8c18.6,14.9,41.1,25.4,59.8,40.5c4.5,3.6,8.8,7.4,14,9.8
			c8,3.5,17.3,3,25.5,0.3c8.2-2.8,15.6-7.8,22.4-13.1c15.4-11.9,29.8-26.3,36.4-44.6c3.6-9.9,4.8-20.6,5.3-31.2
			c0.4-9.7,0.2-19.5-2.5-28.8C875.3,267.4,869.8,258.6,863.6,250.5z"/>
		<path class="st1" d="M758.2,221c-6,6.9-10.1,15.2-15.4,22.7c-16.1,22.7-43,38.2-52.3,64.4c-1.5,4.3-2.5,8.9-1.6,13.3
			c1,4.6,3.9,8.6,7,12.1c22.5,25.8,56,38.8,82.7,60.2c4.9,4,9.7,8.3,15.5,10.9c8.6,3.8,18.7,3.3,27.7,0.3s16.9-8.3,24.5-14
			c17.3-13,33.3-29.1,40.8-49.4c4.1-11,5.5-22.9,6-34.6c0.5-10.8,0.4-21.7-2.6-32.1c-3.1-10.9-9.2-20.8-16.1-29.8
			c-11-14.5-24.5-27.5-41.1-34.9c-12.6-5.7-27.2-7.9-40.8-4.8C779.6,208.2,767.2,210.4,758.2,221z"/>
	</g>
	<g class="st0">
		<path class="st1" d="M599.2,680.1c-9.3-21.9,11.2-44.2,29.6-59.3c16.7-13.6,33.5-27.4,52.6-37.5c20-10.6,42.5-17.1,59.7-31.7
			c29.8-25.2,37.3-67.8,59.5-100c20.5-29.7,54.4-49.8,90.3-53.6"/>
		<path class="st1" d="M615.5,702.7c-8.4-21.3,11.2-42.6,28.8-57.4c18.4-15.5,36.8-31.3,57.5-43.4c22-12.9,46.4-21.8,65.7-38.6
			c29.7-25.7,39-67.3,62-99c22.6-31.1,58.2-52.5,95.5-59.5"/>
		<path class="st1" d="M631.9,725.2c-7.6-20.7,11.3-41,28-55.4c20.2-17.4,40.1-35.2,62.5-49.3c24-15.2,50.4-26.5,71.7-45.4
			c29.5-26.2,40.7-66.7,64.6-98c24.7-32.5,62-55.2,100.6-65.4"/>
		<path class="st1" d="M648.2,747.7c-6.7-20.1,11.3-39.4,27.3-53.5c21.9-19.3,43.4-39.1,67.5-55.2c25.9-17.5,54.4-31.2,77.8-52.3
			c29.4-26.6,42.5-66.1,67.1-97c26.9-33.8,65.8-57.9,105.7-71.3"/>
		<path class="st1" d="M664.5,770.2c-5.9-19.4,11.2-37.8,26.5-51.5c23.5-21.2,46.7-43,72.4-61.2c27.9-19.8,58.5-35.9,83.8-59.1
			c29.3-27,44.3-65.4,69.6-96c29.1-35.1,69.6-60.6,110.8-77.2"/>
		<path class="st1" d="M680.8,792.7c-5-18.8,11.2-36.3,25.7-49.6c25.2-23.1,49.9-46.9,77.4-67.1c29.9-22.1,62.5-40.5,89.8-66
			c29.3-27.4,46.1-64.8,72.2-95.1c31.3-36.4,73.4-63.3,115.9-83.1"/>
		<path class="st1" d="M697.2,815.2c-4.2-18.2,11.1-34.8,24.9-47.7c26.8-25.1,53.2-50.8,82.4-73c31.9-24.4,66.6-45.2,95.8-72.9
			c29.2-27.7,48-64.1,74.7-94.1c33.6-37.7,77.2-66,121.1-89"/>
		<path class="st1" d="M713.5,837.8c-3.3-17.6,11.1-33.3,24.1-45.7c28.4-27.1,56.5-54.7,87.3-79c33.9-26.7,70.6-49.8,101.8-79.7
			c29.2-28.1,49.9-63.4,77.3-93.1c35.9-38.9,81-68.7,126.2-94.9"/>
		<path class="st1" d="M729.8,860.3c-2.5-17,11-31.8,23.4-43.8c30-29.1,59.8-58.6,92.3-84.9c35.8-29,74.7-54.4,107.8-86.6
			c29.2-28.4,51.8-62.6,79.8-92.1c38.2-40.1,84.8-71.4,131.3-100.8"/>
		<path class="st1" d="M746.1,882.8c-1.7-16.3,10.9-30.3,22.6-41.9c31.5-31.2,63.1-62.5,97.3-90.8c37.8-31.3,78.8-59,113.8-93.5
			c29.1-28.8,53.7-61.9,82.4-91.1c40.5-41.3,88.6-74.1,136.4-106.7"/>
	</g>
	<g class="st0">
		<path class="st1" d="M414.4-20.4c-4.4,2.4-7.3,8-5.4,12.7c0.6,1.6,1.7,2.9,2.8,4.2c2.7,3.4,5.5,6.7,8.2,10.1
			c1.7,2.1,3.9,4.5,6.7,4.3c2-0.1,3.6-1.6,5-3.1c3.8-3.8,7.3-7.8,10.7-12c1-1.2,2-2.5,2.3-4.1c0.3-1.4-0.1-2.9-0.7-4.3
			C439.6-23.1,423.9-25.6,414.4-20.4z"/>
		<path class="st1" d="M387.3-43.1c-6.3,2.3-11.7,6.6-15,12.5c-3.9,7.2-4.3,16.1-0.9,23.4c0.8,1.6,1.7,3.2,2.8,4.5
			c2.6,3.1,6.2,5.2,9.7,7.3c0.9,0.5,1.8,1.1,2.7,1.7c4.2,2.6,8.2,5.4,12.2,8.3c2.7,2,5.4,4.2,7.5,6.9c3.1,4.1,4.5,8.9,5.3,13.9
			c0.5,3,0.9,6,1.3,8.8c0.2,1,0.4,2,1,2.8c0.6,0.7,1.5,1.1,2.3,1.5c3.2,1.3,6.6,2.3,10,1.6c4.2-0.9,7.4-4.2,9.9-7.7
			c1.4-2,2.7-4,3.8-6.1c5.9-10.5,10.1-22.1,17.7-31.6c3.5-4.4,7.7-8.2,11.1-12.7c2.9-3.8,5.3-8.2,6.5-12.9c0.3-1,0.5-2.1,0.6-3.2
			c0.4-3.2,0.1-6.4-1.4-9.1c-1.1-2-2.9-3.6-4.6-5.1c-6.8-5.8-15.2-9.3-24.1-11.1c-8.8-1.7-18.1-2-27.3-2.3
			c-3.6-0.1-7.3-0.2-10.9,0.4C400.3-50,394.2-45.6,387.3-43.1z"/>
		<path class="st1" d="M360.3-65.8c-10.8,3.6-20.2,10.8-25.7,21c-6.5,12.2-6.7,27.6-0.3,39.7c1.4,2.7,3.1,5.3,5.2,7.5
			c4.8,5.1,11.2,8.1,17.3,11.2c1.6,0.8,3.2,1.7,4.8,2.5c7.3,3.9,14.4,8.2,21.3,12.9c4.7,3.2,9.4,6.6,12.9,11.2
			c5.2,6.9,6.9,15.3,7.5,23.9c0.4,5.1,0.4,10.4,0.6,15.4c0.1,1.7,0.2,3.5,1.3,4.9c0.9,1.2,2.5,1.9,3.9,2.5c5.4,2.1,11.3,3.7,17,2.3
			c7.1-1.7,12.3-7.6,16.3-13.8c2.2-3.5,4.2-7.1,6.1-10.7c9.3-18.5,15-38.9,27.9-55.2c5.9-7.5,13.2-13.9,19-21.5
			c5.1-6.7,8.9-14.3,11-22.4c0.5-1.8,0.8-3.6,1.1-5.5c0.7-5.5,0.2-11.1-2.6-15.8c-2.1-3.5-5.3-6.1-8.6-8.4
			c-12-8.4-26.4-12.7-41.1-14.5c-14.6-1.8-29.6-1.4-44.5-1.7c-5.9-0.1-11.8-0.3-17.5,0.7C381.1-77.5,371.6-69.6,360.3-65.8z"/>
		<path class="st1" d="M333.3-88.5C318-83.5,304.6-73.5,297-59.1c-9.1,17.2-9,39,0.3,56.1c2.1,3.8,4.6,7.4,7.6,10.4
			c6.9,7,16.1,10.9,25,15.1c2.3,1.1,4.6,2.2,6.8,3.4c10.5,5.3,20.6,11.1,30.5,17.5c6.7,4.3,13.4,9.1,18.3,15.5
			c7.3,9.7,9.3,21.6,9.7,33.9c0.3,7.3,0,14.8,0,22c0,2.4,0.1,5.1,1.6,7.1c1.3,1.8,3.4,2.7,5.5,3.4c7.6,2.9,16,5,23.9,3.1
			c10-2.5,17.3-11.1,22.7-19.9c3.1-4.9,5.8-10.1,8.3-15.4c12.6-26.4,20-55.7,38.2-78.7c8.4-10.6,18.8-19.5,26.9-30.3
			c7.2-9.5,12.5-20.5,15.4-32c0.6-2.6,1.2-5.2,1.5-7.9c1-7.8,0.2-15.8-3.9-22.4c-3.1-4.9-7.8-8.6-12.6-11.7
			c-17.2-11.1-37.7-16-58.1-17.9c-20.4-1.8-41.1-0.8-61.7-1.2c-8.1-0.1-16.2-0.5-24.2,1C361.8-104.9,349.1-93.6,333.3-88.5z"/>
		<path class="st1" d="M259.3-73.3c-11.7,22.3-11.3,50.5,1,72.5c2.7,4.9,6,9.5,10,13.4c9,8.9,21.1,13.8,32.6,19.1
			c16.7,7.7,33,16.4,48.5,26.3c8.7,5.5,17.4,11.5,23.7,19.8c15,20,12,47.6,11.2,72.5c-0.1,3.2-0.1,6.6,1.8,9.2
			c1.7,2.3,4.4,3.4,7.1,4.4c9.9,3.6,20.6,6.4,30.8,3.8c12.9-3.3,22.2-14.5,29.2-26c23.6-38.8,30.9-86.6,59-122.2
			c10.8-13.7,24.3-25.1,34.8-39.1c9.3-12.4,16.1-26.6,19.9-41.6c3.3-13.1,4-27.9-3.2-39.3c-4-6.4-10.2-11.1-16.6-15
			c-22.4-13.7-48.9-19.4-75.2-21.2c-26.2-1.9-52.6-0.3-78.8-0.6c-10.3-0.1-20.7-0.6-30.9,1.2c-21.4,3.9-37.5,18.7-57.7,25.1
			C286.4-104.9,269.1-92,259.3-73.3z"/>
	</g>
	<g class="st0">
		<path class="st1" d="M760.4-292.3c-5,18.1-10,36.2-15,54.4c-3.1,11.1-6.1,22.6-4,33.9c1.9,9.6,7.4,18.2,14.2,25.2
			c27.8,28.7,72.2,32.3,112.1,30.3c39.9-2,81.8-7.6,118.2,8.7c42.9,19.2,67.5,63.4,94.2,102c17.4,25.3,36.9,49.2,58.1,71.4
			c30.2,31.7,68.2,61.6,112,60.8"/>
		<path class="st1" d="M734.7-279.4c-2.2,14-4.2,29.2-6.9,44.8c-0.3,1.9-0.7,3.9-1,5.8c-1.9,10.8-4.1,22.3-1.8,33.5
			c0.7,3.2,1.7,6.2,3,9.2c2.6,6,6.4,11.5,10.6,16.4c13.6,15.8,31.1,25.3,49.7,31.2c16.5,5.3,33.8,7.8,51.7,8.7
			c22.9,1.1,47.9-0.8,71.7,1.5c15.4,1.4,30.4,4.6,44.6,10.8c5.2,2.3,10.1,4.9,14.8,7.8c8.8,5.4,16.9,11.9,24.2,19.4
			c8.3,8.5,15.4,18.1,22.4,28c10.7,15.2,21.1,31,32,45.7c4.5,6.1,9.2,12.1,13.9,17.9c14.4,17.5,29.9,33.9,46.3,49.3
			c2.4,2.3,4.9,4.5,7.4,6.8c29.8,26.6,65.4,49.9,105.4,49.9"/>
		<path class="st1" d="M709.1-266.6c0.1,11.8,0.5,26-0.4,41.3c-0.1,1.9-0.2,3.7-0.4,5.6c-0.8,10.6-2.1,21.9,0.4,33.1
			c0.7,3.1,1.7,6.2,3,9.2c2.5,6,6,11.6,9.9,16.7c12.5,16.3,28.1,27.2,44.3,35c14.4,6.9,29.4,11.8,46.3,14.5
			c21.6,3.3,46.6,2.2,70.2,4.8c15.2,1.7,30.1,5,44.2,11c5.1,2.2,10,4.7,14.7,7.5c8.8,5.2,17.1,11.5,24.3,18.9
			c8.2,8.5,14.7,18.3,21.4,28.3c10.3,15.3,20.8,30.7,32.1,44.9c4.7,5.9,9.5,11.6,14.4,17.1c14.9,16.6,31.1,31.7,48,45.8
			c2.5,2.1,5.1,4.2,7.6,6.2c30.6,24.4,66.3,45.7,105.9,46.4"/>
		<path class="st1" d="M683.5-253.8c2.4,9.6,5.2,22.9,6,37.7c0.1,1.8,0.2,3.6,0.2,5.5c0.3,10.3-0.1,21.5,2.7,32.6
			c0.8,3.1,1.8,6.2,3,9.2c2.4,6,5.7,11.7,9.2,17c11.3,16.9,25.1,29.1,39,38.7c12.4,8.6,24.9,15.8,41,20.3
			c20.3,5.6,45.4,5.2,68.7,8.2c15,1.9,29.7,5.3,43.8,11.3c5.1,2.2,10,4.6,14.7,7.3c8.9,5,17.2,11,24.3,18.4
			c8,8.5,14.1,18.5,20.5,28.5C966.3-3.8,977,11.4,988.7,25c4.8,5.6,9.8,11.1,14.9,16.3c15.5,15.7,32.2,29.5,49.7,42.4
			c2.6,1.9,5.2,3.8,7.9,5.7c31.4,22.2,67.3,41.5,106.5,42.8"/>
		<path class="st1" d="M657.9-241c4.7,7.4,9.9,19.8,12.5,34.1c0.3,1.8,0.6,3.5,0.9,5.3c1.4,10.1,1.9,21.1,4.9,32.2
			c0.8,3.1,1.8,6.2,3,9.2c2.4,6.1,5.3,11.9,8.5,17.3c10.2,17.4,22.1,31,33.6,42.5c10.3,10.3,20.4,19.8,35.6,26.1
			c19,7.8,44.1,8.3,67.2,11.6c14.9,2.1,29.4,5.7,43.3,11.5c5,2.1,9.9,4.4,14.7,7c8.9,4.8,17.3,10.5,24.3,18
			c7.9,8.5,13.4,18.8,19.5,28.8c9.4,15.4,20.3,30.3,32.3,43.4c4.9,5.4,10.1,10.6,15.4,15.5c16,14.8,33.4,27.4,51.4,39
			c2.7,1.7,5.4,3.4,8.1,5.1c32.2,20,68.2,37.3,107,39.3"/>
		<path class="st1" d="M632.3-228.1c7,5.2,14.6,16.7,19,30.5c0.5,1.7,1,3.4,1.5,5.2c2.6,9.8,4,20.8,7.1,31.8c0.9,3.1,1.9,6.2,3,9.2
			c2.3,6.1,5,12,7.8,17.6c9.1,17.9,19.1,33,28.3,46.3c8.3,12,16,23.7,30.3,31.9c17.7,10,42.8,11.3,65.7,15
			c14.7,2.4,29.1,6,42.9,11.7c5,2,9.9,4.3,14.6,6.8c8.9,4.6,17.4,10.1,24.3,17.5c7.8,8.5,12.8,19,18.6,29c8.9,15.5,20,30,32.5,42.7
			c5.1,5.2,10.4,10.1,15.9,14.7c16.6,13.8,34.6,25.2,53.1,35.6c2.8,1.5,5.5,3.1,8.3,4.6c33,17.7,69.1,33,107.6,35.8"/>
		<path class="st1" d="M606.6-215.3c9.3,3.1,19.3,13.5,25.5,26.9c0.8,1.6,1.5,3.3,2.1,5c3.7,9.6,6,20.4,9.3,31.3
			c0.9,3.1,1.9,6.1,3,9.1c2.2,6.1,4.6,12.1,7.1,17.9c8,18.5,16.1,34.9,22.9,50.1c6.2,13.8,11.5,27.7,24.9,37.7
			C717.9-25,743-22.9,765.7-18.9c14.5,2.6,28.7,6.4,42.5,11.9c5,2,9.8,4.2,14.6,6.5c8.9,4.4,17.6,9.6,24.3,17
			c7.7,8.5,12.1,19.2,17.6,29.3c8.5,15.6,19.8,29.8,32.6,41.9c5.2,5,10.8,9.6,16.4,13.9c17.1,12.9,35.7,23,54.8,32.1
			c2.8,1.3,5.7,2.7,8.6,4c33.8,15.5,70.1,28.8,108.1,32.3"/>
		<path class="st1" d="M581-202.5c11.6,0.9,24,10.4,31.9,23.4c1,1.6,1.9,3.2,2.7,4.9c4.8,9.3,8,20,11.5,30.9c1,3.1,2,6.1,3,9.1
			c2.1,6.2,4.3,12.3,6.4,18.3c6.9,19,13,36.9,17.5,53.9c4.1,15.5,7.1,31.6,19.6,43.5C688.9-4.2,714-1.4,736.5,3.1
			c14.3,2.8,28.4,6.7,42,12.1c4.9,1.9,9.8,4,14.5,6.3c8.9,4.2,17.7,9.1,24.3,16.5c7.6,8.5,11.4,19.4,16.7,29.5
			c8.1,15.7,19.5,29.6,32.7,41.2c5.4,4.7,11.1,9.1,16.9,13.1c17.6,12,36.9,20.9,56.5,28.7c2.9,1.2,5.8,2.3,8.8,3.4
			c34.6,13.3,71,24.6,108.7,28.7"/>
		<path class="st1" d="M555.4-189.7c13.9-1.3,28.7,7.3,38.4,19.8c1.2,1.5,2.3,3.1,3.4,4.7c5.9,9.1,10,19.6,13.7,30.5
			c1,3,2,6.1,3,9.1c2,6.2,3.9,12.4,5.7,18.6c5.7,19.6,9.9,38.8,12.2,57.6c2,17.2,2.7,35.5,14.2,49.3C660,16.5,685,20.2,707.3,25
			c14.2,3.1,28.1,7.1,41.6,12.3c4.9,1.9,9.7,3.9,14.5,6c8.9,4,17.8,8.7,24.3,16c7.4,8.5,10.8,19.6,15.7,29.8
			c7.6,15.8,19.3,29.4,32.9,40.4c5.5,4.5,11.4,8.6,17.4,12.3c18.2,11.1,38.1,18.7,58.2,25.3c3,1,6,1.9,9,2.9
			c35.4,11.1,71.9,20.4,109.2,25.2"/>
		<path class="st1" d="M529.8-176.9c16.2-3.5,33.4,4.2,44.9,16.2c11.5,12,18.1,27.9,22.9,43.8c8,26,12,53.1,11.9,80.3
			c-0.1,18.9-1.7,39.4,8.9,55.1c12.7,18.7,37.7,23.3,59.8,28.5c19,4.5,37.7,10.6,55.7,18.3c8.9,3.8,18,8.2,24.3,15.6
			c7.3,8.5,10.1,19.8,14.7,30c10.1,22.3,29.4,39.5,50.9,51.2c21.5,11.7,45.4,18.3,69.2,24.2c36.2,8.9,72.9,16.1,109.8,21.7"/>
	</g>
</g>
</svg>
